# xmcd CD database file
#
# Track frame offsets:
#	150
#	18444
#	35391
#	59386
#	80024
#	109213
#	130592
#	150917
#	169525
#	188150
#	210908
#	226564
#
# Disc length: 3253 seconds
#
# Revision: 1
# Processed by: cddbd v1.5.2PL0 Copyright (c) Steve Scherf et al.
# Submitted via: CDex 1.51
#
DISCID=840cb30c
DTITLE=Funky Butt - Shakin' da butt
DYEAR=2007
DGENRE=Jazz
TTITLE0=Be nice or leave!
TTITLE1=Second line turkey
TTITLE2=Bullets
TTITLE3=Einstein
TTITLE4=Growl
TTITLE5=No panties
TTITLE6=First communion
TTITLE7=North rampart strut
TTITLE8=Feel good calypso
TTITLE9=Tanya's backyard
TTITLE10=F.Y.
TTITLE11=Shakin' da butt
EXTD=YEAR: 2007
EXTT0=
EXTT1=
EXTT2=
EXTT3=
EXTT4=
EXTT5=
EXTT6=
EXTT7=
EXTT8=
EXTT9=
EXTT10=
EXTT11=
PLAYORDER=
